<svg width="115" height="50" viewBox="0 0 115 50" fill="none" xmlns="http://www.w3.org/2000/svg">
<path d="M48.5352 0H39.6484C37.2253 0 35.2539 1.97139 35.2539 4.39453C35.2539 6.81768 37.2253 8.78906 39.6484 8.78906H41.1133C42.7014 8.78906 44.043 10.1754 44.043 11.8164C44.043 13.4574 42.7014 14.8438 41.1133 14.8438H39.652C35.583 9.44092 29.2229 6.05469 22.0703 6.05469C9.90068 6.05469 0 15.9116 0 28.0273C0 40.1431 9.90068 50 22.0703 50C34.2504 50 44.043 40.1117 44.043 28.0273C44.043 24.3885 43.1636 20.885 41.5067 17.7584C44.5416 17.5517 46.9727 14.9437 46.9727 11.8164C46.9727 8.60391 44.3766 5.85938 41.1133 5.85938H39.6484C38.8407 5.85938 38.1836 5.20225 38.1836 4.39453C38.1836 3.58682 38.8407 2.92969 39.6484 2.92969H48.5352C49.3441 2.92969 50 2.27383 50 1.46484C50 0.655859 49.3441 0 48.5352 0ZM2.92969 28.0273C2.92969 17.5271 11.5161 8.98438 22.0703 8.98438C23.4723 8.98438 24.8389 9.13809 26.1554 9.42695C14.7912 11.5878 5.95703 21.5978 5.95703 33.8867C5.95703 35.6421 6.14463 37.3936 6.51016 39.1043C4.25771 35.9813 2.92969 32.1559 2.92969 28.0273ZM11.189 43.6846C9.6627 40.6291 8.88672 37.335 8.88672 33.8867C8.88672 21.771 18.7437 11.9141 30.8594 11.9141C31.3322 11.9141 31.8088 11.9299 32.281 11.96C33.5732 12.7841 34.76 13.7597 35.8158 14.8616C20.677 15.3977 9.41836 29.2954 12.2451 44.364C11.8852 44.1488 11.5331 43.922 11.189 43.6846ZM22.0703 47.0703C19.8148 47.0703 17.6498 46.679 15.6387 45.9631C14.4567 41.9484 14.4184 37.5279 15.7027 33.3298C21.5051 35.3557 25.6143 40.4623 26.3472 46.5772C24.9614 46.9003 23.5281 47.0703 22.0703 47.0703ZM32.261 44.0917C31.2865 44.7103 30.256 45.2416 29.1822 45.6772C28.1293 38.6347 23.204 32.8834 16.7461 30.5923C17.3639 29.2498 18.1132 27.9803 18.9772 26.7994C26.643 28.1219 32.3242 34.804 32.3242 42.6758C32.3242 43.1479 32.3019 43.6218 32.261 44.0917ZM38.1171 38.2785C37.2934 39.56 36.3223 40.7296 35.2325 41.7685C34.8394 33.4338 29.0585 26.383 21.1326 24.2742C22.3653 23.0325 23.7449 21.937 25.2429 21.0158C32.7732 22.5117 38.1836 29.0718 38.1836 36.8164C38.1836 37.3039 38.1604 37.794 38.1171 38.2785ZM40.6007 32.4332C39.1458 26.2825 34.7886 21.3895 29.1258 19.1264C31.4933 18.2518 34.0512 17.7734 36.7188 17.7734C37.1917 17.7734 37.6672 17.7899 38.1398 17.8201C40.0216 20.7722 41.1133 24.2745 41.1133 28.0273C41.1133 29.5132 40.9426 30.9908 40.6007 32.4332Z" fill="white"/>
<path d="M61.2802 18.993C60.3876 18.9416 59.8039 18.5987 59.5293 17.9644C59.4091 17.6901 59.4949 17.5444 59.7868 17.5272C60.3876 17.4758 61.3661 17.2186 62.7222 16.7557C64.0783 16.2928 65.0482 16.0442 65.6319 16.01C67.2627 15.9071 68.2755 16.6014 68.6703 18.093C69.0823 19.6359 68.7819 21.0675 67.7691 22.3876C66.722 23.7248 65.383 24.7449 63.7522 25.4478C64.25 25.6878 64.662 26.0479 64.9882 26.5279C65.2972 26.8879 65.4002 27.428 65.2972 28.148C65.2113 28.8509 64.9109 29.4853 64.3959 30.051C63.8466 30.6339 63.1514 31.1483 62.3102 31.594C61.4691 32.0226 60.6623 32.3055 59.8898 32.4426C58.9628 32.6141 58.2418 32.5712 57.7268 32.3141C57.2118 32.0569 56.7741 31.6626 56.4136 31.1311C56.1733 30.7882 56.0359 30.4882 56.0016 30.231C55.9844 29.9739 56.1046 29.3995 56.3621 28.5081C57.4779 25.3878 59.1173 22.2161 61.2802 18.993ZM60.0958 24.7278C62.4991 24.162 64.456 23.1934 65.9666 21.8218C67.4773 20.4331 68.0609 19.2673 67.7176 18.3244C67.6146 18.0673 67.4429 17.8872 67.2026 17.7844C66.9795 17.6815 66.6619 17.6644 66.2499 17.7329C65.8551 17.8015 65.5203 17.8787 65.2457 17.9644C64.971 18.033 64.5418 18.1701 63.9582 18.3758C63.3917 18.5644 63.0312 18.6844 62.8767 18.7359C62.9282 19.3702 62.6707 20.2103 62.1042 21.2561C61.9154 21.6161 61.5807 22.199 61.1 23.0048C60.6365 23.7934 60.3018 24.3677 60.0958 24.7278ZM62.0785 26.0136C61.8381 26.065 61.4777 26.125 60.997 26.1936C60.3103 26.2622 59.7782 26.2022 59.4005 26.0136C58.5594 27.6251 57.9843 28.9538 57.6753 29.9996C57.538 30.4453 57.538 30.7539 57.6753 30.9254C57.8127 31.0968 58.0873 31.1568 58.4993 31.1054C59.3576 31.0025 60.2674 30.7025 61.2287 30.2053C62.1901 29.7081 62.9368 29.1338 63.4689 28.4823C63.8123 28.0709 64.0097 27.6937 64.0612 27.3508C64.1298 27.0079 64.0011 26.7079 63.6749 26.4508C63.3488 26.1936 62.8166 26.0479 62.0785 26.0136Z" fill="white"/>
<path d="M76.1918 23.4162L74.5181 27.2737C73.5053 27.9937 72.5439 28.3538 71.6341 28.3538C71.0161 28.3538 70.4754 28.148 70.0119 27.7366C69.5484 27.3251 69.3167 26.8194 69.3167 26.2193C69.3167 25.2592 69.7201 24.3077 70.5269 23.3648C71.4539 22.2676 72.6555 21.719 74.1318 21.719C74.664 21.719 75.1361 21.9247 75.548 22.3362C75.9772 22.7305 76.1918 23.0905 76.1918 23.4162ZM74.0288 27.1451L74.7756 27.1708C74.5696 27.4965 74.3121 27.9509 74.0031 28.5338C73.7113 29.1167 73.4538 29.6053 73.2306 29.9996C73.0074 30.3939 72.7414 30.8054 72.4324 31.234C72.1234 31.6454 71.7715 31.954 71.3766 32.1598C70.999 32.3826 70.5784 32.4941 70.1149 32.4941C69.3939 32.4941 68.8189 32.194 68.3897 31.594C67.9605 30.9768 67.746 30.3425 67.746 29.691C67.746 28.6966 67.9434 28.1995 68.3382 28.1995C68.5442 28.1995 68.7845 28.388 69.0592 28.7652C69.3338 29.1252 69.4712 29.4938 69.4712 29.871C69.4712 30.0767 69.4626 30.2396 69.4454 30.3596C69.4454 30.4796 69.4454 30.5654 69.4454 30.6168C69.4454 30.6511 69.4454 30.6768 69.4454 30.6939C69.4626 30.8997 69.5484 31.0797 69.7029 31.234C69.8574 31.3883 70.0205 31.4654 70.1922 31.4654C70.69 31.4654 71.2994 31.0368 72.0204 30.1796C72.7414 29.3053 73.4108 28.2937 74.0288 27.1451ZM72.9731 30.4882L75.9858 23.7763C76.3634 23.0734 76.6724 22.5505 76.9128 22.2076C77.1531 21.8647 77.3591 21.8133 77.5308 22.0533C77.7539 22.3104 77.8741 22.6876 77.8912 23.1848C77.9084 23.6648 77.7797 24.2392 77.505 24.9078C77.3505 25.2335 76.9557 25.9364 76.3205 27.0165C75.6854 28.0794 75.2562 28.8595 75.0331 29.3567C74.8099 29.8367 74.664 30.2653 74.5953 30.6425C74.5267 31.0197 74.5438 31.3197 74.6468 31.5426C74.7498 31.7654 74.9472 31.8683 75.2391 31.8512C75.7369 31.834 76.3034 31.474 76.9385 30.7711C77.5737 30.0682 78.1316 29.2367 78.6122 28.2766C78.7667 28.0023 78.9041 27.9937 79.0242 28.2509C79.1959 28.6281 79.1186 29.1595 78.7925 29.8453C78.432 30.5996 77.8912 31.2597 77.1703 31.8254C76.4664 32.3741 75.7712 32.6312 75.0846 32.5969C74.3979 32.5626 73.8743 32.3569 73.5138 31.9797C73.1533 31.6026 72.9731 31.1054 72.9731 30.4882ZM74.6726 25.6535C74.8271 25.3792 74.9386 25.1049 75.0073 24.8306C75.0931 24.5563 75.1446 24.3506 75.1618 24.2134V24.0077C75.1618 23.5448 75.1017 23.2276 74.9816 23.0562C74.8614 22.8848 74.6468 22.799 74.3378 22.799C73.737 22.7648 73.0675 23.1762 72.3294 24.0334C71.6084 24.8563 71.2479 25.6621 71.2479 26.4508C71.2479 27.2222 71.5483 27.608 72.1491 27.608C72.4924 27.608 72.8959 27.4451 73.3593 27.1194C73.84 26.7936 74.2777 26.305 74.6726 25.6535Z" fill="white"/>
<path d="M83.1272 32.0569C83.2474 31.474 83.1959 31.0368 82.9727 30.7454C82.8182 30.4882 82.3977 30.4196 81.711 30.5396C81.0244 30.6425 80.372 30.9082 79.7541 31.3368C79.5309 31.4911 79.385 31.4826 79.3163 31.3111C78.973 30.3168 79.3421 29.511 80.4235 28.8938C81.6423 28.1909 82.6723 27.4537 83.5135 26.6822C84.3546 25.8936 84.9125 25.2078 85.1872 24.6249C85.4618 24.0249 85.479 23.5791 85.2387 23.2877C84.8782 22.8419 84.0027 22.9962 82.6122 23.7505C81.2218 24.5049 80.0373 25.4907 79.0588 26.7079C78.973 26.8108 78.8957 26.8536 78.8271 26.8365C78.7584 26.8022 78.7069 26.7336 78.6726 26.6308C78.5696 26.2707 78.6039 25.8336 78.7756 25.3192C78.9644 24.7878 79.282 24.2992 79.7283 23.8534C80.8441 22.7733 82.0887 22.1476 83.462 21.9761C84.08 21.8904 84.5778 21.9161 84.9554 22.0533C85.3503 22.1733 85.7022 22.4562 86.0112 22.9019C86.6978 23.8791 86.6635 25.0192 85.9082 26.3222C85.2559 27.4365 83.9855 28.5852 82.0973 29.7681C82.7839 29.7339 83.3246 29.9053 83.7195 30.2825C84.0456 30.5911 84.2688 31.0111 84.389 31.5426C85.6249 30.8911 86.6549 29.7853 87.4789 28.2252C87.5304 28.1223 87.6076 28.0709 87.7106 28.0709C87.8136 28.0537 87.8909 28.1052 87.9424 28.2252C88.0969 28.5509 87.9767 29.0824 87.5819 29.8196C87.0669 30.7625 86.0198 31.5769 84.4405 32.2626C84.4405 33.5484 83.9426 34.9971 82.947 36.6087C81.9685 38.2374 81.0329 39.3003 80.1403 39.7975C79.488 40.1575 78.9215 40.0375 78.4408 39.4375C78.2692 39.2146 78.1318 39.026 78.0288 38.8717C77.9258 38.7174 77.8228 38.5031 77.7199 38.2288C77.6169 37.9716 77.5739 37.6888 77.5911 37.3802C77.6083 37.0887 77.6941 36.7715 77.8486 36.4287C78.6211 34.6457 80.3806 33.1884 83.1272 32.0569ZM82.8955 32.9055C81.8483 33.4884 80.9729 34.2085 80.269 35.0657C79.5652 35.9229 79.1103 36.6601 78.9043 37.2773C78.6983 37.9116 78.6897 38.3402 78.8786 38.5631C79.0331 38.7345 79.3764 38.5288 79.9086 37.9459C80.4407 37.363 80.9986 36.583 81.5823 35.6057C82.1831 34.6285 82.6208 33.7285 82.8955 32.9055Z" fill="white"/>
<path d="M95.2691 23.7763C95.6468 23.0734 95.9557 22.5505 96.1961 22.2076C96.4364 21.8647 96.6424 21.8133 96.8141 22.0533C97.0372 22.3104 97.1574 22.6876 97.1746 23.1848C97.1917 23.6648 97.063 24.2392 96.7883 24.9078C96.6338 25.2335 96.239 25.9364 95.6038 27.0165C94.9687 28.0794 94.5395 28.8595 94.3164 29.3567C94.0932 29.8367 93.9473 30.2653 93.8786 30.6425C93.81 31.0197 93.8271 31.3197 93.9301 31.5426C94.0331 31.7654 94.2305 31.8683 94.5224 31.8512C95.0202 31.834 95.5867 31.474 96.2218 30.7711C96.857 30.0682 97.4149 29.2367 97.8955 28.2766C98.05 28.0023 98.1874 27.9937 98.3075 28.2509C98.4792 28.6281 98.4019 29.1595 98.0758 29.8453C97.7153 30.5996 97.1746 31.2597 96.4536 31.8254C95.7498 32.3741 95.0545 32.6312 94.3679 32.5969C93.6812 32.5626 93.1576 32.3569 92.7972 31.9797C92.4367 31.6026 92.2564 31.1054 92.2564 30.4882C91.2093 31.8254 90.1364 32.4941 89.0377 32.4941C88.2481 32.4941 87.6644 32.1855 87.2868 31.5683C86.9263 30.934 86.8319 30.1196 87.0035 29.1252C87.1752 28.1309 87.6043 27.1279 88.291 26.1164C89.2695 24.6935 90.2308 23.6391 91.1749 22.9533C92.1362 22.2676 92.9774 21.9247 93.6984 21.9247C94.2305 21.9247 94.6339 22.1047 94.9086 22.4647C95.1833 22.8076 95.3034 23.2448 95.2691 23.7763ZM93.0289 27.7623C93.5439 26.8536 93.9301 26.0564 94.1876 25.3707C94.4451 24.6849 94.5653 24.1706 94.5481 23.8277C94.5309 23.4848 94.3936 23.2962 94.1361 23.2619C93.707 23.2276 93.0804 23.5877 92.2564 24.342C91.4496 25.0964 90.7029 26.0307 90.0162 27.1451C89.5699 27.8651 89.2351 28.5766 89.012 29.2795C88.7888 29.9653 88.703 30.5311 88.7545 30.9768C88.806 31.4226 88.9948 31.6454 89.321 31.6454C89.8188 31.6626 90.3853 31.3283 91.0204 30.6425C91.6556 29.9396 92.3251 28.9795 93.0289 27.7623Z" fill="white"/>
<path d="M101.455 24.7278C99.8412 27.5737 98.5365 30.0853 97.5409 32.2626C97.4207 32.5369 97.2576 32.5712 97.0516 32.3655C96.4852 31.7997 96.3993 30.9168 96.7941 29.7167C97.0516 28.9281 97.5924 27.7794 98.4164 26.2707C99.2403 24.7449 100.073 23.3648 100.914 22.1304C101.103 21.839 101.283 21.839 101.455 22.1304C101.661 22.4733 101.772 22.8848 101.79 23.3648C101.807 23.8277 101.695 24.282 101.455 24.7278ZM104.133 25.8078L103.927 26.9651C103.532 27.1537 102.802 27.368 101.738 27.608C100.691 27.8309 99.7467 28.0109 98.9056 28.148L97.6181 28.3538C97.3091 28.4223 97.1632 28.3109 97.1804 28.0194C97.1976 27.6937 97.3864 27.4451 97.7469 27.2737C97.8155 27.2394 97.8842 27.2137 97.9529 27.1965C101.283 26.7165 103.343 26.2536 104.133 25.8078ZM103.849 32.5198C102.905 32.5198 102.279 32.1598 101.97 31.4397C101.678 30.7025 101.729 29.811 102.124 28.7652C102.433 27.8909 102.931 26.8194 103.618 25.5507C104.304 24.2649 104.905 23.2534 105.42 22.5162C105.643 22.2076 105.849 22.1561 106.038 22.3619C106.261 22.6019 106.382 22.9619 106.399 23.442C106.416 23.922 106.287 24.4963 106.012 25.1649C105.875 25.4392 105.532 26.0822 104.982 27.0937C104.433 28.1052 104.055 28.8509 103.849 29.331C103.54 30.0853 103.403 30.6854 103.438 31.1311C103.472 31.5769 103.695 31.7912 104.107 31.774C104.656 31.7569 105.249 31.3968 105.884 30.6939C106.519 29.991 107.042 29.1767 107.454 28.2509C107.592 27.9937 107.729 27.9937 107.866 28.2509C108.072 28.6452 108.012 29.1767 107.686 29.8453C107.308 30.6339 106.759 31.2768 106.038 31.774C105.317 32.2712 104.588 32.5198 103.849 32.5198Z" fill="white"/>
<path d="M114.53 28.2766C114.479 29.4596 114.058 30.4796 113.268 31.3368C112.479 32.1769 111.457 32.5969 110.204 32.5969C109.14 32.5969 108.445 32.2369 108.118 31.5169C107.792 30.7968 107.835 29.8796 108.247 28.7652C108.505 27.9766 109.037 26.8965 109.844 25.525C110.668 24.1534 111.234 23.1505 111.543 22.5162C111.577 22.4304 111.638 22.3533 111.723 22.2847C111.826 22.2161 111.921 22.199 112.007 22.2333C112.127 22.2847 112.247 22.439 112.367 22.6962C112.504 22.9533 112.59 23.2105 112.625 23.4677C112.71 24.0506 112.436 24.9163 111.801 26.065C111.904 26.0307 112.075 25.9964 112.316 25.9621C112.831 25.9279 113.268 26.0993 113.629 26.4765C113.698 26.545 113.801 26.6565 113.938 26.8108C114.092 26.9479 114.204 27.0594 114.273 27.1451C114.341 27.2308 114.401 27.3765 114.453 27.5823C114.521 27.7709 114.547 28.0023 114.53 28.2766ZM113.011 28.328C113.148 28.4652 113.397 28.5681 113.758 28.6366C114.135 28.6881 114.504 28.6795 114.865 28.6109C114.933 28.5938 114.976 28.6109 114.994 28.6623C115.011 28.7138 114.994 28.7566 114.942 28.7909C114.805 28.9967 114.453 29.0824 113.886 29.0481C113.32 28.9967 112.865 28.8509 112.522 28.6109C111.955 28.1995 111.663 27.7194 111.646 27.1708C111.389 27.2222 111.174 27.2994 111.002 27.4023C110.127 28.9452 109.689 30.0425 109.689 30.6939C109.689 31.4311 109.964 31.7997 110.513 31.7997C110.994 31.7997 111.5 31.4826 112.032 30.8482C112.582 30.2139 112.925 29.3995 113.062 28.4052C113.165 27.6508 113.208 27.2308 113.191 27.1451C113.157 26.9908 113.097 26.8879 113.011 26.8365C112.925 26.7851 112.839 26.7936 112.753 26.8622C112.685 26.9308 112.633 27.0337 112.599 27.1708C112.496 27.6337 112.633 28.0194 113.011 28.328Z" fill="white"/>
</svg>
